<svg width="331" height="328" viewBox="0 0 331 328" fill="none" xmlns="http://www.w3.org/2000/svg">
<path d="M59.3339 65.5563C59.3339 65.5563 54.7227 1 105.446 1C156.168 1 151.557 65.5563 151.557 65.5563V148.557H59.3339V65.5563Z" fill="black" stroke="black"/>
<path d="M68.5563 148.667C68.5563 148.667 4 153.278 4 102.555C4 51.8321 68.5563 56.4432 68.5563 56.4432L151.557 56.4432L151.557 148.667L68.5563 148.667Z" fill="black" stroke="black"/>
<path d="M179.109 62.8316L183.105 63.017L183.109 62.9243L183.109 62.8316L179.109 62.8316ZM179.109 71.5548L183.109 71.5548L183.109 71.4143L183.099 71.2742L179.109 71.5548ZM179.109 154.667L175.109 154.667L175.109 158.667H179.109V154.667ZM262.11 154.667L262.395 150.677L262.253 150.667H262.11V154.667ZM271.315 62.4665L267.32 62.666L267.5 66.2771L271.111 66.4613L271.315 62.4665ZM225.221 7L225.221 11L225.221 7ZM179.128 62.4432V66.4432H182.932L183.123 62.6436L179.128 62.4432ZM179.109 62.4432V58.4432H175.109L175.109 62.4432L179.109 62.4432ZM175.113 62.6461C174.862 68.0637 175.105 71.6422 175.119 71.8355L183.099 71.2742C183.101 71.3052 182.871 68.0483 183.105 63.017L175.113 62.6461ZM175.109 71.5548L175.109 154.667L183.109 154.667L183.109 71.5548L175.109 71.5548ZM179.109 158.667H262.11V150.667H179.109V158.667ZM262.11 154.667C261.825 158.656 261.827 158.657 261.829 158.657C261.83 158.657 261.832 158.657 261.834 158.657C261.838 158.657 261.843 158.658 261.849 158.658C261.861 158.659 261.877 158.66 261.897 158.661C261.936 158.664 261.991 158.667 262.061 158.671C262.2 158.68 262.399 158.69 262.654 158.702C263.164 158.725 263.897 158.751 264.823 158.765C266.672 158.793 269.294 158.774 272.435 158.587C278.691 158.215 287.118 157.17 295.612 154.44C304.093 151.714 312.869 147.234 319.548 139.84C326.302 132.362 330.666 122.168 330.666 108.555H322.666C322.666 120.303 318.961 128.554 313.611 134.477C308.185 140.485 300.823 144.362 293.164 146.824C285.519 149.281 277.807 150.253 271.959 150.602C269.047 150.775 266.626 150.792 264.945 150.766C264.105 150.753 263.452 150.73 263.016 150.71C262.798 150.7 262.635 150.691 262.53 150.685C262.477 150.682 262.44 150.68 262.417 150.678C262.406 150.677 262.398 150.677 262.394 150.677C262.393 150.677 262.392 150.676 262.392 150.676C262.392 150.676 262.393 150.677 262.393 150.677C262.394 150.677 262.395 150.677 262.11 154.667ZM330.666 108.555C330.666 87.5894 320.337 75.0566 307.649 67.8708C295.236 60.8403 280.659 58.9383 271.519 58.4717L271.111 66.4613C279.803 66.905 292.902 68.7128 303.707 74.8319C314.236 80.7956 322.666 90.8519 322.666 108.555H330.666ZM275.31 62.2671C274.855 53.151 272.973 38.5463 265.951 26.0983C258.773 13.3752 246.233 3 225.221 3L225.221 11C242.961 11 253.024 19.4652 258.983 30.029C265.098 40.8678 266.887 53.9964 267.32 62.666L275.31 62.2671ZM225.221 3C204.218 3 191.679 13.366 184.5 26.0818C177.476 38.5228 175.59 53.1218 175.133 62.2429L183.123 62.6436C183.558 53.9694 185.351 40.8468 191.466 30.015C197.427 19.458 207.488 11 225.221 11L225.221 3ZM179.128 58.4432H179.109V66.4432H179.128V58.4432ZM175.109 62.4432L175.109 62.8316L183.109 62.8316L183.109 62.4432L175.109 62.4432Z" fill="black"/>
<path d="M151.557 267.944L147.562 267.759L147.557 267.851L147.557 267.944L151.557 267.944ZM151.557 259.221L147.557 259.221L147.557 259.361L147.567 259.502L151.557 259.221ZM151.557 176.109L155.557 176.109L155.557 172.109H151.557V176.109ZM68.5563 176.109L68.2713 180.099L68.4136 180.109H68.5563V176.109ZM59.3513 268.309L63.3463 268.11L63.166 264.499L59.5552 264.314L59.3513 268.309ZM105.445 323.776L105.445 319.776L105.445 323.776ZM151.538 268.332V264.332H147.734L147.543 268.132L151.538 268.332ZM151.557 268.332V272.332H155.557L155.557 268.332L151.557 268.332ZM155.553 268.13C155.804 262.712 155.561 259.134 155.547 258.94L147.567 259.502C147.565 259.471 147.795 262.727 147.562 267.759L155.553 268.13ZM155.557 259.221L155.557 176.109L147.557 176.109L147.557 259.221L155.557 259.221ZM151.557 172.109H68.5563V180.109H151.557V172.109ZM68.5563 176.109C68.8412 172.119 68.8395 172.119 68.8375 172.119C68.8365 172.119 68.8342 172.119 68.8322 172.119C68.8282 172.118 68.8232 172.118 68.8172 172.118C68.8053 172.117 68.7894 172.116 68.7697 172.114C68.7303 172.112 68.6754 172.108 68.6057 172.104C68.4662 172.096 68.267 172.085 68.012 172.074C67.5022 172.051 66.7688 172.025 65.8436 172.011C63.9944 171.982 61.3718 172.001 58.2317 172.188C51.9751 172.561 43.5478 173.606 35.0541 176.336C26.5735 179.062 17.7969 183.542 11.1184 190.936C4.36453 198.414 -6.58509e-05 208.607 -6.58509e-05 222.221H7.99993C7.99993 210.473 11.7049 202.222 17.0553 196.298C22.4811 190.291 29.8436 186.414 37.5021 183.952C45.1475 181.495 52.8593 180.522 58.707 180.174C61.619 180.001 64.0398 179.984 65.7211 180.01C66.5611 180.022 67.2147 180.046 67.6505 180.066C67.8683 180.076 68.0316 180.084 68.1364 180.091C68.1888 180.094 68.2266 180.096 68.2492 180.098C68.2606 180.098 68.2681 180.099 68.2718 180.099C68.2736 180.099 68.2745 180.099 68.2744 180.099C68.2744 180.099 68.2736 180.099 68.2736 180.099C68.2725 180.099 68.2713 180.099 68.5563 176.109ZM-6.58509e-05 222.221C-6.58509e-05 243.186 10.3295 255.719 23.0171 262.905C35.4305 269.935 50.0069 271.837 59.1474 272.304L59.5552 264.314C50.863 263.871 37.7638 262.063 26.9596 255.944C16.4298 249.98 7.99993 239.924 7.99993 222.221H-6.58509e-05ZM55.3563 268.509C55.8114 277.625 57.693 292.229 64.7155 304.677C71.8931 317.4 84.4333 327.776 105.445 327.776L105.445 319.776C87.7056 319.776 77.6427 311.31 71.6832 300.747C65.5686 289.908 63.7792 276.779 63.3463 268.11L55.3563 268.509ZM105.445 327.776C126.448 327.776 138.987 317.41 146.166 304.694C153.19 292.253 155.076 277.654 155.533 268.533L147.543 268.132C147.108 276.806 145.315 289.929 139.2 300.761C133.239 311.318 123.178 319.776 105.445 319.776L105.445 327.776ZM151.538 272.332H151.557V264.332H151.538V272.332ZM155.557 268.332L155.557 267.944L147.557 267.944L147.557 268.332L155.557 268.332Z" fill="black"/>
<path d="M271.557 259.444C271.557 259.444 276.168 324 225.445 324C174.722 324 179.333 259.444 179.333 259.444L179.333 176.443L271.557 176.443L271.557 259.444Z" fill="black" stroke="black"/>
<path d="M262.334 176.333C262.334 176.333 326.891 171.722 326.891 222.445C326.891 273.168 262.334 268.557 262.334 268.557L179.333 268.557L179.333 176.333L262.334 176.333Z" fill="black" stroke="black"/>
</svg>
